# xmcd
#
# Track frame offsets:
# 150
# 22581
# 34958
# 51993
# 75798
# 88485
# 105853
# 121977
# 140413
# 153090
# 167737
# 181941
#
# Disc length: 2653 seconds
#
# Revision: 0
# Processed by: cddbd v1.5.1PL0 Copyright (c) Steve Scherf et al.
# Submitted via: Audion 3.0.2 (http://www.panic.com/audion/)
#
DISCID=850a5b0c
DTITLE=Felix Falch and Rainy James - Just Another Day At The Office
DYEAR=1900
DGENRE=
TTITLE0=Mojo-blues
TTITLE1=D funk
TTITLE2=Corina
TTITLE3=Don't fool around
TTITLE4=Heat
TTITLE5=Late last night
TTITLE6=Tax-collector
TTITLE7=Lonely Avenue
TTITLE8=Babe Avenue
TTITLE9=Way past your bedtime
TTITLE10=Fool the devil
TTITLE11=Down in Missisipi
EXTD=
EXTT0=
EXTT1=
EXTT2=
EXTT3=
EXTT4=
EXTT5=
EXTT6=
EXTT7=
EXTT8=
EXTT9=
EXTT10=
EXTT11=
PLAYORDER=
